<svg xmlns="http://www.w3.org/2000/svg" viewBox="0 0 1000 600" fill="none" stroke="#8fd1df" stroke-width="2">
  <g data-layer="foundation" id="foundation_main">
    <line x1="60" y1="540" x2="460" y2="540" />
    <line x1="540" y1="540" x2="940" y2="540" />
    <line x1="80" y1="512" x2="920" y2="512" />
    <polyline points="60,552 80,540 60,528" />
    <polyline points="940,528 920,540 940,552" />
  </g>

  <g data-layer="supports" id="piers">
    <line x1="180" y1="510" x2="180" y2="320" />
    <line x1="300" y1="510" x2="300" y2="300" />
    <line x1="420" y1="510" x2="420" y2="286" />
    <line x1="580" y1="510" x2="580" y2="286" />
    <line x1="700" y1="510" x2="700" y2="300" />
    <line x1="820" y1="510" x2="820" y2="320" />
    <polyline points="168,510 180,494 192,510" />
    <polyline points="808,510 820,494 832,510" />
  </g>

  <g data-layer="beams" id="deck">
    <line x1="100" y1="284" x2="900" y2="284" />
    <line x1="100" y1="304" x2="900" y2="304" />
    <line x1="120" y1="320" x2="880" y2="320" />
    <polyline points="120,270 200,260 500,252 800,260 880,270" />
  </g>

  <g data-layer="truss" id="upper_truss">
    <path d="M100 240 L180 224 L260 214 L340 206 L420 198 L500 194 L580 198 L660 206 L740 214 L820 224 L900 240" />
    <line x1="120" y1="260" x2="880" y2="260" />
    <line x1="180" y1="224" x2="180" y2="304" />
    <line x1="300" y1="210" x2="300" y2="304" />
    <line x1="420" y1="198" x2="420" y2="304" />
    <line x1="580" y1="198" x2="580" y2="304" />
    <line x1="700" y1="210" x2="700" y2="304" />
    <line x1="820" y1="224" x2="820" y2="304" />
  </g>

  <g data-layer="braces" id="diag_braces">
    <line x1="180" y1="304" x2="300" y2="224" />
    <line x1="300" y1="304" x2="420" y2="198" />
    <line x1="420" y1="304" x2="500" y2="194" />
    <line x1="500" y1="194" x2="580" y2="304" />
    <line x1="580" y1="198" x2="700" y2="304" />
    <line x1="700" y1="224" x2="820" y2="304" />
    <line x1="300" y1="224" x2="180" y2="304" />
    <line x1="420" y1="198" x2="300" y2="304" />
    <line x1="580" y1="198" x2="700" y2="304" />
    <line x1="820" y1="224" x2="700" y2="304" />
  </g>
</svg>
