<svg xmlns="http://www.w3.org/2000/svg" viewBox="0 0 1000 600" fill="none" stroke="#8fd1df" stroke-width="2">
  <g data-layer="foundation" id="foundation_strip">
    <line x1="90" y1="544" x2="910" y2="544" />
    <line x1="90" y1="520" x2="910" y2="520" />
    <polyline points="120,520 150,544 180,520" />
    <polyline points="820,520 850,544 880,520" />
    <line x1="140" y1="512" x2="140" y2="544" />
    <line x1="260" y1="512" x2="260" y2="544" />
    <line x1="380" y1="512" x2="380" y2="544" />
    <line x1="500" y1="512" x2="500" y2="544" />
    <line x1="620" y1="512" x2="620" y2="544" />
    <line x1="740" y1="512" x2="740" y2="544" />
    <line x1="860" y1="512" x2="860" y2="544" />
  </g>

  <g data-layer="supports" id="columns">
    <line x1="140" y1="520" x2="140" y2="190" />
    <line x1="260" y1="520" x2="260" y2="190" />
    <line x1="380" y1="520" x2="380" y2="190" />
    <line x1="500" y1="520" x2="500" y2="170" />
    <line x1="620" y1="520" x2="620" y2="190" />
    <line x1="740" y1="520" x2="740" y2="190" />
    <line x1="860" y1="520" x2="860" y2="190" />
  </g>

  <g data-layer="beams" id="beam_levels">
    <line x1="140" y1="470" x2="860" y2="470" />
    <line x1="140" y1="410" x2="860" y2="410" />
    <line x1="140" y1="350" x2="860" y2="350" />
    <line x1="140" y1="290" x2="860" y2="290" />
    <line x1="140" y1="230" x2="860" y2="230" />
  </g>

  <g data-layer="braces" id="cross_braces">
    <line x1="140" y1="470" x2="260" y2="410" />
    <line x1="260" y1="470" x2="140" y2="410" />
    <line x1="260" y1="470" x2="380" y2="410" />
    <line x1="380" y1="470" x2="260" y2="410" />
    <line x1="500" y1="410" x2="620" y2="350" />
    <line x1="620" y1="410" x2="500" y2="350" />
    <line x1="620" y1="350" x2="740" y2="290" />
    <line x1="740" y1="350" x2="620" y2="290" />
    <line x1="740" y1="290" x2="860" y2="230" />
    <line x1="860" y1="290" x2="740" y2="230" />
  </g>

  <g data-layer="roof" id="roof_frame">
    <path d="M120 200 L240 170 L380 146 L500 134 L620 146 L760 170 L880 200" />
    <line x1="120" y1="200" x2="880" y2="200" />
    <line x1="240" y1="170" x2="240" y2="230" />
    <line x1="380" y1="146" x2="380" y2="230" />
    <line x1="500" y1="134" x2="500" y2="230" />
    <line x1="620" y1="146" x2="620" y2="230" />
    <line x1="760" y1="170" x2="760" y2="230" />
  </g>
</svg>
